<?xml version="1.0"?>
<svg xmlns="http://www.w3.org/2000/svg" width="512" height="512" viewBox="0 0 512 512"><g><path d="M496,472H440V136h16a8,8,0,0,0,8-8V104a8,8,0,0,0-8-8H438.42L423.81,30.26A7.994,7.994,0,0,0,416,24H96a7.994,7.994,0,0,0-7.81,6.26L73.58,96H56a8,8,0,0,0-8,8v24a8,8,0,0,0,8,8H72V472H16a8,8,0,0,0,0,16H496a8,8,0,0,0,0-16ZM102.42,40H409.58l12.45,56H89.97ZM64,120v-8H448v8ZM280,472H232V408h48Zm144,0H296V400a8,8,0,0,0-8-8H224a8,8,0,0,0-8,8v72H88V136H424Z"/><path d="M288,144H224a8,8,0,0,0-8,8V376a8,8,0,0,0,8,8h64a8,8,0,0,0,8-8V152A8,8,0,0,0,288,144Zm-56,16h16v24H232Zm0,40h16v24H232Zm0,72h16v24H232Zm0,40h16v24H232Zm48,56H232V352h48Zm0-32H264V312h16Zm0-40H264V272h16Zm0-40H232V240h48Zm0-32H264V200h16Zm0-40H264V160h16Z"/><path d="M192,144H128a8,8,0,0,0-8,8V376a8,8,0,0,0,8,8h64a8,8,0,0,0,8-8V152A8,8,0,0,0,192,144Zm-56,16h16v24H136Zm0,40h16v24H136Zm0,72h16v24H136Zm0,40h16v24H136Zm48,56H136V352h48Zm0-32H168V312h16Zm0-40H168V272h16Zm0-40H136V240h48Zm0-32H168V200h16Zm0-40H168V160h16Z"/><path d="M384,144H320a8,8,0,0,0-8,8V376a8,8,0,0,0,8,8h64a8,8,0,0,0,8-8V152A8,8,0,0,0,384,144Zm-56,16h16v24H328Zm0,40h16v24H328Zm0,72h16v24H328Zm0,40h16v24H328Zm48,56H328V352h48Zm0-32H360V312h16Zm0-40H360V272h16Zm0-40H328V240h48Zm0-32H360V200h16Zm0-40H360V160h16Z"/><path d="M264,424a8,8,0,0,0-8,8v16a8,8,0,0,0,16,0V432A8,8,0,0,0,264,424Z"/><path d="M168,72H112a8,8,0,0,0,0,16h56a8,8,0,0,0,0-16Z"/><path d="M200,72h-8a8,8,0,0,0,0,16h8a8,8,0,0,0,0-16Z"/></g></svg>
