<svg id="Capa_1" enable-background="new 0 0 512 512" height="512" viewBox="0 0 512 512" width="512" xmlns="http://www.w3.org/2000/svg"><path d="m497 190c8.284 0 15-6.716 15-15v-60c0-6.063-3.65-11.531-9.251-13.854l-241-100c-3.681-1.527-7.817-1.527-11.498 0l-241 100c-5.601 2.323-9.251 7.791-9.251 13.854v60c0 8.284 6.716 15 15 15h26v170h-5c-8.284 0-15 6.716-15 15v45h-6c-8.284 0-15 6.716-15 15v62c0 8.284 6.716 15 15 15h482c8.284 0 15-6.716 15-15v-62c0-8.284-6.716-15-15-15h-6v-45c0-8.284-6.716-15-15-15h-5v-170zm-15 260v32h-452v-32zm-361-60v30h-70v-30zm-50-30v-170h30v170zm65 0h-5v-170h250v170h-5c-8.284 0-15 6.716-15 15v45h-210v-45c0-8.284-6.716-15-15-15zm325 30v30h-70v-30zm-50-30v-170h30v170zm-381-200v-34.984l226-93.776 226 93.775v34.985z"/><path d="m346 100h-180c-8.284 0-15 6.716-15 15s6.716 15 15 15h180c8.284 0 15-6.716 15-15s-6.716-15-15-15z"/><path d="m256 350c-8.271 0-15-6.729-15-15 0-8.284-6.716-15-15-15s-15 6.716-15 15c0 19.555 12.541 36.228 30 42.42v7.58c0 8.284 6.716 15 15 15s15-6.716 15-15v-7.58c17.459-6.192 30-22.865 30-42.42 0-24.813-20.187-45-45-45-8.271 0-15-6.729-15-15s6.729-15 15-15 15 6.729 15 15c0 8.284 6.716 15 15 15s15-6.716 15-15c0-19.555-12.541-36.228-30-42.42v-7.58c0-8.284-6.716-15-15-15s-15 6.716-15 15v7.58c-17.459 6.192-30 22.865-30 42.42 0 24.813 20.187 45 45 45 8.271 0 15 6.729 15 15s-6.729 15-15 15z"/></svg>