<svg height="512" viewBox="0 0 128 128" width="512" xmlns="http://www.w3.org/2000/svg"><g><path d="m113.625 24.8h-99.25a9.829 9.829 0 0 0 -9.818 9.818v58.766a9.829 9.829 0 0 0 9.818 9.818h99.25a9.829 9.829 0 0 0 9.818-9.818v-58.768a9.829 9.829 0 0 0 -9.818-9.816zm-99.25 3.5h99.25a6.325 6.325 0 0 1 6.318 6.318v7.717h-111.886v-7.719a6.325 6.325 0 0 1 6.318-6.316zm99.25 71.4h-99.25a6.325 6.325 0 0 1 -6.318-6.318v-47.549h111.886v47.551a6.325 6.325 0 0 1 -6.318 6.316z"/><path d="m42.536 66.593a11.383 11.383 0 0 0 -6.414 1.971 11.448 11.448 0 1 0 0 18.953 11.446 11.446 0 1 0 6.414-20.924zm-20.765 11.448a7.936 7.936 0 0 1 11.718-6.989 11.373 11.373 0 0 0 0 13.977 7.935 7.935 0 0 1 -11.717-6.988zm20.765 7.947a7.948 7.948 0 1 1 7.947-7.947 7.956 7.956 0 0 1 -7.947 7.947z"/><path d="m107.979 56.047h-29.94a1.749 1.749 0 0 0 -1.75 1.75v29.941a1.749 1.749 0 0 0 1.75 1.75h29.94a1.749 1.749 0 0 0 1.75-1.75v-29.938a1.749 1.749 0 0 0 -1.75-1.753zm-28.19 29.941v-6.471h7.319a1.75 1.75 0 0 0 0-3.5h-7.319v-5.924h7.319a1.75 1.75 0 0 0 0-3.5h-7.319v-7.046h26.44v7.046h-7.319a1.75 1.75 0 0 0 0 3.5h7.319v5.924h-7.319a1.75 1.75 0 0 0 0 3.5h7.319v6.471z"/></g></svg>