<?xml version="1.0" encoding="iso-8859-1"?>
<!-- Generator: Adobe Illustrator 19.0.0, SVG Export Plug-In . SVG Version: 6.00 Build 0)  -->
<svg version="1.1" id="Capa_1" xmlns="http://www.w3.org/2000/svg" xmlns:xlink="http://www.w3.org/1999/xlink" x="0px" y="0px"
	 viewBox="0 0 512.001 512.001" style="enable-background:new 0 0 512.001 512.001;" xml:space="preserve">
<g>
	<g>
		<path d="M509.156,247.21c-1.15-1.589-28.665-39.375-73.179-77.591C385.398,126.198,322.903,91,256,91
			c-66.923,0-129.421,35.218-179.976,78.619c-44.516,38.216-72.03,76.003-73.18,77.593c-3.792,5.246-3.792,12.332,0,17.578
			c1.15,1.59,28.664,39.376,73.18,77.593C126.604,385.804,189.098,421,256,421c66.922,0,129.421-35.218,179.977-78.619
			c44.515-38.216,72.029-76.003,73.179-77.593C512.949,259.542,512.949,252.456,509.156,247.21z M415.001,320.78
			C373.473,356.162,317.074,391,256,391c-63.672,0-122.116-38.583-159.933-70.951c-29.614-25.347-51.613-51.004-62.093-64.044
			c10.103-12.551,30.91-36.807,59.025-61.337C134.869,158.139,192.942,121,256,121c63.672,0,122.116,38.583,159.933,70.951
			c29.611,25.345,51.609,51.001,62.093,64.044C467.45,269.134,445.142,295.1,415.001,320.78z"/>
	</g>
</g>
<g>
	<g>
		<path d="M256,151c-57.897,0-105,47.103-105,105c0,57.897,47.103,105,105,105c57.897,0,105-47.103,105-105
			C361,198.103,313.898,151,256,151z M256,331c-41.355,0-75-33.645-75-75c0-41.355,33.645-75,75-75c41.355,0,75,33.645,75,75
			S297.356,331,256,331z"/>
	</g>
</g>
<g>
	<g>
		<path d="M256,211c-24.813,0-45,20.187-45,45s20.187,45,45,45s45-20.187,45-45S280.814,211,256,211z M256,271
			c-8.271,0-15-6.729-15-15s6.729-15,15-15s15,6.729,15,15S264.271,271,256,271z"/>
	</g>
</g>
<g>
</g>
<g>
</g>
<g>
</g>
<g>
</g>
<g>
</g>
<g>
</g>
<g>
</g>
<g>
</g>
<g>
</g>
<g>
</g>
<g>
</g>
<g>
</g>
<g>
</g>
<g>
</g>
<g>
</g>
</svg>
