<?xml version="1.0" encoding="iso-8859-1"?>
<!-- Generator: Adobe Illustrator 18.0.0, SVG Export Plug-In . SVG Version: 6.00 Build 0)  -->
<!DOCTYPE svg PUBLIC "-//W3C//DTD SVG 1.1//EN" "http://www.w3.org/Graphics/SVG/1.1/DTD/svg11.dtd">
<svg version="1.1" id="Capa_1" xmlns="http://www.w3.org/2000/svg" xmlns:xlink="http://www.w3.org/1999/xlink" x="0px" y="0px"
	 viewBox="0 0 457.784 457.784" style="enable-background:new 0 0 457.784 457.784;" xml:space="preserve">
<g id="XMLID_236_">
	<circle id="XMLID_518_" cx="369.003" cy="39.833" r="39.831"/>
	<path id="XMLID_1413_" d="M445.372,215.901l-57.013-25.418l0,0l-11.418-67.677l24.415,54.333l4.532-52.717
		c1.273-14.806-9.698-27.84-24.503-29.113l-47.807-4.11c-14.717-1.265-27.678,9.568-29.083,24.239l-43.634,37.607
		c-1.417,1.221-2.636,2.656-3.611,4.252l-41.518,67.939c-5.188,8.489-2.511,19.577,5.978,24.765c0.975,0.596,1.987,1.079,3.017,1.47
		l-23.305,23.305l-20.986-20.987c-6.704-6.704-17.574-6.704-24.278,0l-8.009,8.009c-6.704,6.704-6.704,17.574,0,24.278
		l20.986,20.987l-10.558,10.558l-39.745-39.745c-6.704-6.704-17.574-6.704-24.278,0L6.737,365.693
		c-6.704,6.704-6.704,17.574,0,24.278l26.392,26.393c-1.396,3.473-2.172,7.259-2.172,11.225c0,16.65,13.546,30.195,30.195,30.195
		c16.649,0,30.195-13.546,30.195-30.195c0-3.895-0.749-7.616-2.098-11.037l152.073-152.557c4.015-4.015,4.019-10.522,0.014-14.543
		c2.014-1.389,3.781-3.205,5.139-5.427l40.045-65.531l13.551-11.679c0,0-6.178,87.389-6.11,87.82l12.929,82.348l-34.51,91.5
		c-4.22,11.19,1.429,23.683,12.62,27.904c11.195,4.221,23.685-1.434,27.904-12.62l36.529-96.851
		c1.323-3.507,1.713-7.298,1.131-11.001l-12.364-78.75l11.284,0.97l34.76,76.917l24.071,105.876
		c2.651,11.66,14.253,18.967,25.918,16.315c11.662-2.652,18.966-14.255,16.315-25.917l-24.555-108.004
		c-0.322-1.415-0.785-2.794-1.383-4.117l-29.797-65.936l0.118-1.37L357.77,235.33c-15.24-6.795-21.209-22.127-20.681-30.402
		l4.681-73.634l12.608,74.733v0c1.006,5.96,4.927,11.019,10.447,13.48l65.851,29.358c9.261,4.13,19.856-0.217,23.83-9.134
		C458.565,230.626,454.474,219.959,445.372,215.901z M61.152,437.196c-5.298,0-9.607-4.31-9.607-9.608
		c0-5.297,4.309-9.607,9.607-9.607s9.607,4.31,9.607,9.607C70.76,432.886,66.45,437.196,61.152,437.196z"/>
</g>
<g>
</g>
<g>
</g>
<g>
</g>
<g>
</g>
<g>
</g>
<g>
</g>
<g>
</g>
<g>
</g>
<g>
</g>
<g>
</g>
<g>
</g>
<g>
</g>
<g>
</g>
<g>
</g>
<g>
</g>
</svg>
