<?xml version="1.0" encoding="iso-8859-1"?>
<!-- Generator: Adobe Illustrator 19.0.0, SVG Export Plug-In . SVG Version: 6.00 Build 0)  -->
<svg version="1.1" id="Capa_1" xmlns="http://www.w3.org/2000/svg" xmlns:xlink="http://www.w3.org/1999/xlink" x="0px" y="0px"
	 viewBox="0 0 512 512" style="enable-background:new 0 0 512 512;" xml:space="preserve">
<g>
	<g>
		<path d="M347,422c-8.291,0-15,6.709-15,15v15c0,16.538-13.447,30-30,30c-16.553,0-30-13.462-30-30V240.469
			c34.823,2.032,55.012,10.582,59.198,13.909C325.335,138.814,288.954,60,257,60c-32.666,0-70.848,82.05-76.238,195.927
			c4.329-4.662,24.236-13.392,59.238-15.454V452c0,33.091,28.924,60,62,60s60-26.909,60-60v-15C362,428.709,355.291,422,347,422z"/>
	</g>
</g>
<g>
	<g>
		<path d="M507.957,241.108C487.739,124.975,389.524,37.628,272,30.698V15c0-8.291-6.709-15-15-15c-8.291,0-17,6.709-17,15v15.698
			C122.443,37.626,24.218,124.964,4.039,241.111C1.685,245.339,0,249.851,0,255c0,20.183,29.214,20.963,32.344-1.772
			C38.979,248.009,58.572,240,90,240c37.266,0,58.125,11.309,60,15c0,1.126,0.396,2.164,0.623,3.248
			c13.019-306.264,198.544-303.56,210.663,0.377c0.187-0.945,0.568-1.809,0.568-2.82C363.875,251.309,384.734,240,422,240
			c31.436,0,51.035,8.007,57.576,12.742C482.858,276.337,512,274.156,512,255C512,249.849,510.315,245.336,507.957,241.108z"/>
	</g>
</g>
<g>
</g>
<g>
</g>
<g>
</g>
<g>
</g>
<g>
</g>
<g>
</g>
<g>
</g>
<g>
</g>
<g>
</g>
<g>
</g>
<g>
</g>
<g>
</g>
<g>
</g>
<g>
</g>
<g>
</g>
</svg>
